<?xml version="1.0" encoding="utf-8"?>
<!-- Generator: Adobe Illustrator 18.1.1, SVG Export Plug-In . SVG Version: 6.00 Build 0)  -->
<svg version="1.1" id="Layer_1" xmlns="http://www.w3.org/2000/svg" xmlns:xlink="http://www.w3.org/1999/xlink" x="0px" y="0px"
	 viewBox="0 0 400 200" enable-background="new 0 0 400 200" xml:space="preserve">
<g>
	<g>
		<linearGradient id="SVGID_1_" gradientUnits="userSpaceOnUse" x1="53.502" y1="99.4966" x2="348.9023" y2="99.4966">
			<stop  offset="0" style="stop-color:#F2F6F8;stop-opacity:0"/>
			<stop  offset="1" style="stop-color:#BFC4C7;stop-opacity:0"/>
		</linearGradient>
		<path fill="none" stroke="url(#SVGID_1_)" d="M80.7,128.2c-6,0-10.9-3.4-13.6-8c0,7.5,0,23.8,0,23.8h-4.2c-4.8,0-9.4-3.5-9.4-9.3
			v-32.6c0-17.9,8-30.3,27-30.3c14.3,0,24.5,13,24.5,26.6C105,115.7,96.4,128.2,80.7,128.2z M78.4,83.7c-7.4,0-11.5,6.4-11.5,15.7
			c0,10.8,5.3,16.9,13.3,16.9c6.5,0,11-5.8,11-14.4C91.2,89.2,87,83.7,78.4,83.7z"/>
		<linearGradient id="SVGID_2_" gradientUnits="userSpaceOnUse" x1="53.502" y1="99.4966" x2="348.9023" y2="99.4966">
			<stop  offset="0" style="stop-color:#F2F6F8;stop-opacity:0"/>
			<stop  offset="1" style="stop-color:#BFC4C7;stop-opacity:0"/>
		</linearGradient>
		<path fill="none" stroke="url(#SVGID_2_)" d="M159.1,127c-5.6,0-9.1-3.2-9.1-9V96c0-8.8-4.8-12.3-10.7-12.3
			c-4.2,0-9.7,3.2-9.7,12.7V127h-4.4c-6.3,0-9.2-3.5-9.2-9V55h4.2c6.4,0,9.5,3.6,9.5,8.6c0,0,0,10.6,0,15.4c2-3.2,6.6-7.2,11.7-7.2
			c13.9,0,22.1,8.3,22.1,23.6V127H159.1z"/>
		<linearGradient id="SVGID_3_" gradientUnits="userSpaceOnUse" x1="53.502" y1="99.4966" x2="348.9023" y2="99.4966">
			<stop  offset="0" style="stop-color:#F2F6F8;stop-opacity:0"/>
			<stop  offset="1" style="stop-color:#BFC4C7;stop-opacity:0"/>
		</linearGradient>
		<path fill="none" stroke="url(#SVGID_3_)" d="M203.7,128.2c-6,0-10.9-3.4-13.6-8c0,7.5,0,23.8,0,23.8h-4.2c-4.8,0-9.4-3.5-9.4-9.3
			v-32.6c0-17.9,8-30.3,27-30.3c14.3,0,24.5,13,24.5,26.6C228,115.7,219.4,128.2,203.7,128.2z M201.4,83.7
			c-7.4,0-11.5,6.4-11.5,15.7c0,10.8,5.3,16.9,13.3,16.9c6.5,0,11-5.8,11-14.4C214.2,89.2,210,83.7,201.4,83.7z"/>
		<linearGradient id="SVGID_4_" gradientUnits="userSpaceOnUse" x1="53.502" y1="99.4966" x2="348.9023" y2="99.4966">
			<stop  offset="0" style="stop-color:#F2F6F8;stop-opacity:0"/>
			<stop  offset="1" style="stop-color:#BFC4C7;stop-opacity:0"/>
		</linearGradient>
		<path fill="none" stroke="url(#SVGID_4_)" d="M264.9,127.3h-7.4c-12.8,0-19.1-5.6-19.1-16.3V61.3c3.3-1.2,12.4-3.1,18.1-3.1h8.3
			c13.1,0,22.4,6.9,22.4,18.1c0,7.6-4.1,12.5-10.9,14.5c6.9,1.9,12.1,9,12.1,15C288.4,119.6,277.4,127.3,264.9,127.3z M262.9,69.6
			h-5.1c-1.7,0-4,0.4-5.9,0.7v15.5h10.5c6.1,0,11.1-2.4,11.1-8.3C273.5,71.5,268,69.6,262.9,69.6z M262.9,96.4H252v14.1
			c0,2.4,2.6,4.3,6,4.3h5.6c7.4,0,11-3.4,11-8.6C274.6,98.8,270.9,96.4,262.9,96.4z"/>
		<linearGradient id="SVGID_5_" gradientUnits="userSpaceOnUse" x1="53.502" y1="99.4966" x2="348.9023" y2="99.4966">
			<stop  offset="0" style="stop-color:#F2F6F8;stop-opacity:0"/>
			<stop  offset="1" style="stop-color:#BFC4C7;stop-opacity:0"/>
		</linearGradient>
		<path fill="none" stroke="url(#SVGID_5_)" d="M325.4,127.3H318c-12.8,0-19.1-5.6-19.1-16.3V61.3c3.3-1.2,12.4-3.1,18.1-3.1h8.3
			c13.1,0,22.4,6.9,22.4,18.1c0,7.6-4.1,12.5-10.9,14.5c6.9,1.9,12.1,9,12.1,15C348.9,119.6,337.9,127.3,325.4,127.3z M323.4,69.6
			h-5.1c-1.7,0-4,0.4-5.9,0.7v15.5h10.5c6.1,0,11.1-2.4,11.1-8.3C334,71.5,328.5,69.6,323.4,69.6z M323.4,96.4h-10.9v14.1
			c0,2.4,2.6,4.3,6,4.3h5.6c7.4,0,11-3.4,11-8.6C335.1,98.8,331.4,96.4,323.4,96.4z"/>
	</g>
	<g>
		<linearGradient id="SVGID_6_" gradientUnits="userSpaceOnUse" x1="53.502" y1="99.4966" x2="348.9023" y2="99.4966">
			<stop  offset="0" style="stop-color:#F2F6F8"/>
			<stop  offset="1" style="stop-color:#FFFFFF"/>
		</linearGradient>
		<path fill="url(#SVGID_6_)" d="M80.7,128.2c-6,0-10.9-3.4-13.6-8c0,7.5,0,23.8,0,23.8h-4.2c-4.8,0-9.4-3.5-9.4-9.3v-32.6
			c0-17.9,8-30.3,27-30.3c14.3,0,24.5,13,24.5,26.6C105,115.7,96.4,128.2,80.7,128.2z M78.4,83.7c-7.4,0-11.5,6.4-11.5,15.7
			c0,10.8,5.3,16.9,13.3,16.9c6.5,0,11-5.8,11-14.4C91.2,89.2,87,83.7,78.4,83.7z"/>
		<linearGradient id="SVGID_7_" gradientUnits="userSpaceOnUse" x1="53.502" y1="99.4966" x2="348.9023" y2="99.4966">
			<stop  offset="0" style="stop-color:#F2F6F8"/>
			<stop  offset="1" style="stop-color:#FFFFFF"/>
		</linearGradient>
		<path fill="url(#SVGID_7_)" d="M159.1,127c-5.6,0-9.1-3.2-9.1-9V96c0-8.8-4.8-12.3-10.7-12.3c-4.2,0-9.7,3.2-9.7,12.7V127h-4.4
			c-6.3,0-9.2-3.5-9.2-9V55h4.2c6.4,0,9.5,3.6,9.5,8.6c0,0,0,10.6,0,15.4c2-3.2,6.6-7.2,11.7-7.2c13.9,0,22.1,8.3,22.1,23.6V127
			H159.1z"/>
		<linearGradient id="SVGID_8_" gradientUnits="userSpaceOnUse" x1="53.502" y1="99.4966" x2="348.9023" y2="99.4966">
			<stop  offset="0" style="stop-color:#F2F6F8"/>
			<stop  offset="1" style="stop-color:#FFFFFF"/>
		</linearGradient>
		<path fill="url(#SVGID_8_)" d="M203.7,128.2c-6,0-10.9-3.4-13.6-8c0,7.5,0,23.8,0,23.8h-4.2c-4.8,0-9.4-3.5-9.4-9.3v-32.6
			c0-17.9,8-30.3,27-30.3c14.3,0,24.5,13,24.5,26.6C228,115.7,219.4,128.2,203.7,128.2z M201.4,83.7c-7.4,0-11.5,6.4-11.5,15.7
			c0,10.8,5.3,16.9,13.3,16.9c6.5,0,11-5.8,11-14.4C214.2,89.2,210,83.7,201.4,83.7z"/>
		<linearGradient id="SVGID_9_" gradientUnits="userSpaceOnUse" x1="53.502" y1="99.4966" x2="348.9023" y2="99.4966">
			<stop  offset="0" style="stop-color:#F2F6F8"/>
			<stop  offset="1" style="stop-color:#FFFFFF"/>
		</linearGradient>
		<path fill="url(#SVGID_9_)" d="M264.9,127.3h-7.4c-12.8,0-19.1-5.6-19.1-16.3V61.3c3.3-1.2,12.4-3.1,18.1-3.1h8.3
			c13.1,0,22.4,6.9,22.4,18.1c0,7.6-4.1,12.5-10.9,14.5c6.9,1.9,12.1,9,12.1,15C288.4,119.6,277.4,127.3,264.9,127.3z M262.9,69.6
			h-5.1c-1.7,0-4,0.4-5.9,0.7v15.5h10.5c6.1,0,11.1-2.4,11.1-8.3C273.5,71.5,268,69.6,262.9,69.6z M262.9,96.4H252v14.1
			c0,2.4,2.6,4.3,6,4.3h5.6c7.4,0,11-3.4,11-8.6C274.6,98.8,270.9,96.4,262.9,96.4z"/>
		<linearGradient id="SVGID_10_" gradientUnits="userSpaceOnUse" x1="53.502" y1="99.4966" x2="348.9023" y2="99.4966">
			<stop  offset="0" style="stop-color:#F2F6F8"/>
			<stop  offset="1" style="stop-color:#FFFFFF"/>
		</linearGradient>
		<path fill="url(#SVGID_10_)" d="M325.4,127.3H318c-12.8,0-19.1-5.6-19.1-16.3V61.3c3.3-1.2,12.4-3.1,18.1-3.1h8.3
			c13.1,0,22.4,6.9,22.4,18.1c0,7.6-4.1,12.5-10.9,14.5c6.9,1.9,12.1,9,12.1,15C348.9,119.6,337.9,127.3,325.4,127.3z M323.4,69.6
			h-5.1c-1.7,0-4,0.4-5.9,0.7v15.5h10.5c6.1,0,11.1-2.4,11.1-8.3C334,71.5,328.5,69.6,323.4,69.6z M323.4,96.4h-10.9v14.1
			c0,2.4,2.6,4.3,6,4.3h5.6c7.4,0,11-3.4,11-8.6C335.1,98.8,331.4,96.4,323.4,96.4z"/>
	</g>
</g>
</svg>
